<?xml version="1.0" standalone="no"?>
<!DOCTYPE svg PUBLIC "-//W3C//DTD SVG 20010904//EN"
 "http://www.w3.org/TR/2001/REC-SVG-20010904/DTD/svg10.dtd">
<svg version="1.0" xmlns="http://www.w3.org/2000/svg"
 width="256.000000pt" height="256.000000pt" viewBox="0 0 256.000000 256.000000"
 preserveAspectRatio="xMidYMid meet">
<metadata>
Created by potrace 1.14, written by Peter Selinger 2001-2017
</metadata>
<g transform="translate(0.000000,256.000000) scale(0.100000,-0.100000)"
fill="#000000" stroke="none">
<path d="M0 1280 l0 -1280 1280 0 1280 0 0 1280 0 1280 -1280 0 -1280 0 0
-1280z m2040 253 c0 -4 -42 -49 -92 -100 l-93 -93 -465 0 c-258 0 -496 -5
-535 -10 -40 -6 -86 -21 -110 -35 -22 -13 -94 -78 -160 -144 l-120 -121 -150
0 -150 0 185 186 c270 271 311 298 488 313 112 10 1202 13 1202 4z m350 0 c0
-5 -111 -119 -247 -255 l-248 -248 -165 0 -165 0 255 255 255 255 157 0 c87 0
158 -3 158 -7z m-570 -220 c0 -4 -42 -49 -92 -100 l-93 -93 -370 0 -371 0 -44
-45 -44 -45 -155 0 -156 0 120 121 c127 127 152 145 218 159 52 10 987 13 987
3z m220 -253 c0 -5 -4 -10 -10 -10 -5 0 -10 5 -10 10 0 6 5 10 10 10 6 0 10
-4 10 -10z"/>
</g>
</svg>
